<?xml version="1.0" encoding="utf-8"?><svg width="auto" height="3970" style="overflow:visible " version="1.1" xmlns="http://www.w3.org/2000/svg"><rect x="20" y="20" width="200" height="40" style="fill:white;stroke:black;stroke-width:1" /><text x="30" y="30" font-size="10" style="fill:blue">red_social</text><text x="30" y="40" font-size="8" style="fill:black">xmlns:xsi: http://www.w3.org/2001/XMLSchema-instance</text><text x="30" y="50" font-size="8" style="fill:black">xsi:noNamespaceSchemaLocation: red_social.xsd</text><rect x="240" y="20" width="200" height="40" style="fill:white;stroke:black;stroke-width:1" /><text x="250" y="30" font-size="10" style="fill:blue">amigo</text><path d="M220 40 C240 40 220 40 240 40" style="fill:transparent;stroke:black" /><text x="250" y="40" font-size="8" style="fill:black">nombre: Miguel</text><text x="250" y="50" font-size="8" style="fill:black">apellidos: Menendez Rodriguez</text><text x="250" y="60" font-size="8" style="fill:black">comentarios: Estudiante</text><rect x="460" y="20" width="200" height="40" style="fill:white;stroke:black;stroke-width:1" /><text x="470" y="30" font-size="10" style="fill:blue">nacimiento</text><path d="M440 40 C460 40 440 40 460 40" style="fill:transparent;stroke:black" /><text x="470" y="40" font-size="8" style="fill:black">lugar: Oviedo</text><text x="470" y="50" font-size="8" style="fill:black">fecha: 2000-08-29</text><rect x="680" y="20" width="200" height="40" style="fill:white;stroke:black;stroke-width:1" /><text x="690" y="30" font-size="10" style="fill:blue">coordenadas</text><path d="M660 40 C680 40 660 40 680 40" style="fill:transparent;stroke:black" /><text x="690" y="40" font-size="8" style="fill:black">lat: 43.354933</text><text x="690" y="50" font-size="8" style="fill:black">long: -5.8514295</text><text x="690" y="60" font-size="8" style="fill:black">alt: 259.9078972</text><rect x="460" y="120" width="200" height="40" style="fill:white;stroke:black;stroke-width:1" /><text x="470" y="130" font-size="10" style="fill:blue">residencia</text><path d="M440 40 C460 40 440 140 460 140" style="fill:transparent;stroke:black" /><text x="470" y="140" font-size="8" style="fill:black">lugar: Caboalles de Abajo</text><rect x="680" y="120" width="200" height="40" style="fill:white;stroke:black;stroke-width:1" /><text x="690" y="130" font-size="10" style="fill:blue">coordenadas</text><path d="M660 140 C680 140 660 140 680 140" style="fill:transparent;stroke:black" /><text x="690" y="140" font-size="8" style="fill:black">lat: 42.9526827</text><text x="690" y="150" font-size="8" style="fill:black">long: -6.3755552</text><text x="690" y="160" font-size="8" style="fill:black">alt: 1.054.7566915</text><rect x="460" y="220" width="200" height="40" style="fill:white;stroke:black;stroke-width:1" /><text x="470" y="230" font-size="10" style="fill:blue">fotografia</text><path d="M440 40 C460 40 440 240 460 240" style="fill:transparent;stroke:black" /><text x="470" y="240" font-size="8" style="fill:black">url: miguel.jpg</text><rect x="460" y="270" width="200" height="40" style="fill:white;stroke:black;stroke-width:1" /><text x="470" y="280" font-size="10" style="fill:blue">amigo</text><path d="M440 40 C460 40 440 290 460 290" style="fill:transparent;stroke:black" /><text x="470" y="290" font-size="8" style="fill:black">nombre: Ana Maria</text><text x="470" y="300" font-size="8" style="fill:black">apellidos: Palomero Pescador</text><text x="470" y="310" font-size="8" style="fill:black">comentarios: Huérfana de padre</text><rect x="680" y="270" width="200" height="40" style="fill:white;stroke:black;stroke-width:1" /><text x="690" y="280" font-size="10" style="fill:blue">nacimiento</text><path d="M660 290 C680 290 660 290 680 290" style="fill:transparent;stroke:black" /><text x="690" y="290" font-size="8" style="fill:black">lugar: Caboalles de Abajo</text><text x="690" y="300" font-size="8" style="fill:black">fecha: 1917-12-03</text><rect x="900" y="270" width="200" height="40" style="fill:white;stroke:black;stroke-width:1" /><text x="910" y="280" font-size="10" style="fill:blue">coordenadas</text><path d="M880 290 C900 290 880 290 900 290" style="fill:transparent;stroke:black" /><text x="910" y="290" font-size="8" style="fill:black">lat: 42.9521477</text><text x="910" y="300" font-size="8" style="fill:black">long: -6.374352</text><text x="910" y="310" font-size="8" style="fill:black">alt: 1.044.0396361</text><rect x="680" y="370" width="200" height="40" style="fill:white;stroke:black;stroke-width:1" /><text x="690" y="380" font-size="10" style="fill:blue">residencia</text><path d="M660 290 C680 290 660 390 680 390" style="fill:transparent;stroke:black" /><text x="690" y="390" font-size="8" style="fill:black">lugar: Caboalles de Abajo</text><rect x="900" y="370" width="200" height="40" style="fill:white;stroke:black;stroke-width:1" /><text x="910" y="380" font-size="10" style="fill:blue">coordenadas</text><path d="M880 390 C900 390 880 390 900 390" style="fill:transparent;stroke:black" /><text x="910" y="390" font-size="8" style="fill:black">lat: 42.9526827</text><text x="910" y="400" font-size="8" style="fill:black">long: -6.3755552</text><text x="910" y="410" font-size="8" style="fill:black">alt: 1.054.7566915</text><rect x="680" y="470" width="200" height="40" style="fill:white;stroke:black;stroke-width:1" /><text x="690" y="480" font-size="10" style="fill:blue">fotografia</text><path d="M660 290 C680 290 660 490 680 490" style="fill:transparent;stroke:black" /><text x="690" y="490" font-size="8" style="fill:black">url: anamari.jpg</text><rect x="680" y="520" width="200" height="40" style="fill:white;stroke:black;stroke-width:1" /><text x="690" y="530" font-size="10" style="fill:blue">amigo</text><path d="M660 290 C680 290 660 540 680 540" style="fill:transparent;stroke:black" /><text x="690" y="540" font-size="8" style="fill:black">nombre: Javier</text><text x="690" y="550" font-size="8" style="fill:black">apellidos: Menendez Jimenez</text><text x="690" y="560" font-size="8" style="fill:black">comentarios: Ganadero</text><rect x="900" y="520" width="200" height="40" style="fill:white;stroke:black;stroke-width:1" /><text x="910" y="530" font-size="10" style="fill:blue">nacimiento</text><path d="M880 540 C900 540 880 540 900 540" style="fill:transparent;stroke:black" /><text x="910" y="540" font-size="8" style="fill:black">lugar: Helgueras</text><text x="910" y="550" font-size="8" style="fill:black">fecha: 1916-04-17</text><rect x="1120" y="520" width="200" height="40" style="fill:white;stroke:black;stroke-width:1" /><text x="1130" y="530" font-size="10" style="fill:blue">coordenadas</text><path d="M1100 540 C1120 540 1100 540 1120 540" style="fill:transparent;stroke:black" /><text x="1130" y="540" font-size="8" style="fill:black">lat: 43.3563116</text><text x="1130" y="550" font-size="8" style="fill:black">long: -5.1206803</text><text x="1130" y="560" font-size="8" style="fill:black">alt: 199.8421655</text><rect x="900" y="620" width="200" height="40" style="fill:white;stroke:black;stroke-width:1" /><text x="910" y="630" font-size="10" style="fill:blue">residencia</text><path d="M880 540 C900 540 880 640 900 640" style="fill:transparent;stroke:black" /><text x="910" y="640" font-size="8" style="fill:black">lugar: Cangas de Onís</text><rect x="1120" y="620" width="200" height="40" style="fill:white;stroke:black;stroke-width:1" /><text x="1130" y="630" font-size="10" style="fill:blue">coordenadas</text><path d="M1100 640 C1120 640 1100 640 1120 640" style="fill:transparent;stroke:black" /><text x="1130" y="640" font-size="8" style="fill:black">lat: 43.3507281</text><text x="1130" y="650" font-size="8" style="fill:black">long: -5.1287966</text><text x="1130" y="660" font-size="8" style="fill:black">alt: 66.3388045</text><rect x="900" y="720" width="200" height="40" style="fill:white;stroke:black;stroke-width:1" /><text x="910" y="730" font-size="10" style="fill:blue">fotografia</text><path d="M880 540 C900 540 880 740 900 740" style="fill:transparent;stroke:black" /><text x="910" y="740" font-size="8" style="fill:black">url: javier.jpg</text><rect x="680" y="820" width="200" height="40" style="fill:white;stroke:black;stroke-width:1" /><text x="690" y="830" font-size="10" style="fill:blue">amigo</text><path d="M660 290 C680 290 660 840 680 840" style="fill:transparent;stroke:black" /><text x="690" y="840" font-size="8" style="fill:black">nombre: Lucia</text><text x="690" y="850" font-size="8" style="fill:black">apellidos: Gutierrez Guanes</text><text x="690" y="860" font-size="8" style="fill:black">comentarios: Ganadera</text><rect x="900" y="820" width="200" height="40" style="fill:white;stroke:black;stroke-width:1" /><text x="910" y="830" font-size="10" style="fill:blue">nacimiento</text><path d="M880 840 C900 840 880 840 900 840" style="fill:transparent;stroke:black" /><text x="910" y="840" font-size="8" style="fill:black">lugar: Celango</text><text x="910" y="850" font-size="8" style="fill:black">fecha: 1919-12-28</text><rect x="1120" y="820" width="200" height="40" style="fill:white;stroke:black;stroke-width:1" /><text x="1130" y="830" font-size="10" style="fill:blue">coordenadas</text><path d="M1100 840 C1120 840 1100 840 1120 840" style="fill:transparent;stroke:black" /><text x="1130" y="840" font-size="8" style="fill:black">lat: 43.3567593</text><text x="1130" y="850" font-size="8" style="fill:black">long: -5.112205</text><text x="1130" y="860" font-size="8" style="fill:black">alt: 299.7768765</text><rect x="900" y="920" width="200" height="40" style="fill:white;stroke:black;stroke-width:1" /><text x="910" y="930" font-size="10" style="fill:blue">residencia</text><path d="M880 840 C900 840 880 940 900 940" style="fill:transparent;stroke:black" /><text x="910" y="940" font-size="8" style="fill:black">lugar: Cangas de Onís</text><rect x="1120" y="920" width="200" height="40" style="fill:white;stroke:black;stroke-width:1" /><text x="1130" y="930" font-size="10" style="fill:blue">coordenadas</text><path d="M1100 940 C1120 940 1100 940 1120 940" style="fill:transparent;stroke:black" /><text x="1130" y="940" font-size="8" style="fill:black">lat: 43.3507281</text><text x="1130" y="950" font-size="8" style="fill:black">long: -5.1287966</text><text x="1130" y="960" font-size="8" style="fill:black">alt: 66.3388045</text><rect x="900" y="1020" width="200" height="40" style="fill:white;stroke:black;stroke-width:1" /><text x="910" y="1030" font-size="10" style="fill:blue">fotografia</text><path d="M880 840 C900 840 880 1040 900 1040" style="fill:transparent;stroke:black" /><text x="910" y="1040" font-size="8" style="fill:black">url: lucia.jpg</text><rect x="680" y="1120" width="200" height="40" style="fill:white;stroke:black;stroke-width:1" /><text x="690" y="1130" font-size="10" style="fill:blue">amigo</text><path d="M660 290 C680 290 660 1140 680 1140" style="fill:transparent;stroke:black" /><text x="690" y="1140" font-size="8" style="fill:black">nombre: Alejandro</text><text x="690" y="1150" font-size="8" style="fill:black">apellidos: Fernandez Varela</text><text x="690" y="1160" font-size="8" style="fill:black">comentarios: Agricultor</text><rect x="900" y="1120" width="200" height="40" style="fill:white;stroke:black;stroke-width:1" /><text x="910" y="1130" font-size="10" style="fill:blue">nacimiento</text><path d="M880 1140 C900 1140 880 1140 900 1140" style="fill:transparent;stroke:black" /><text x="910" y="1140" font-size="8" style="fill:black">lugar: San Juan de Parres</text><text x="910" y="1150" font-size="8" style="fill:black">fecha: 1918-06-20</text><rect x="1120" y="1120" width="200" height="40" style="fill:white;stroke:black;stroke-width:1" /><text x="1130" y="1130" font-size="10" style="fill:blue">coordenadas</text><path d="M1100 1140 C1120 1140 1100 1140 1120 1140" style="fill:transparent;stroke:black" /><text x="1130" y="1140" font-size="8" style="fill:black">lat: 43.3546285</text><text x="1130" y="1150" font-size="8" style="fill:black">long: -5.1478346</text><text x="1130" y="1160" font-size="8" style="fill:black">alt: 168.933651</text><rect x="900" y="1220" width="200" height="40" style="fill:white;stroke:black;stroke-width:1" /><text x="910" y="1230" font-size="10" style="fill:blue">residencia</text><path d="M880 1140 C900 1140 880 1240 900 1240" style="fill:transparent;stroke:black" /><text x="910" y="1240" font-size="8" style="fill:black">lugar: San Juan de Parres</text><rect x="1120" y="1220" width="200" height="40" style="fill:white;stroke:black;stroke-width:1" /><text x="1130" y="1230" font-size="10" style="fill:blue">coordenadas</text><path d="M1100 1240 C1120 1240 1100 1240 1120 1240" style="fill:transparent;stroke:black" /><text x="1130" y="1240" font-size="8" style="fill:black">lat: 43.3546285</text><text x="1130" y="1250" font-size="8" style="fill:black">long: -5.1478346</text><text x="1130" y="1260" font-size="8" style="fill:black">alt: 168.933651</text><rect x="900" y="1320" width="200" height="40" style="fill:white;stroke:black;stroke-width:1" /><text x="910" y="1330" font-size="10" style="fill:blue">fotografia</text><path d="M880 1140 C900 1140 880 1340 900 1340" style="fill:transparent;stroke:black" /><text x="910" y="1340" font-size="8" style="fill:black">url: alex.jpg</text><rect x="460" y="1470" width="200" height="40" style="fill:white;stroke:black;stroke-width:1" /><text x="470" y="1480" font-size="10" style="fill:blue">amigo</text><path d="M440 40 C460 40 440 1490 460 1490" style="fill:transparent;stroke:black" /><text x="470" y="1490" font-size="8" style="fill:black">nombre: Luis</text><text x="470" y="1500" font-size="8" style="fill:black">apellidos: Menendez Fernandez</text><text x="470" y="1510" font-size="8" style="fill:black">comentarios: Padre</text><rect x="680" y="1470" width="200" height="40" style="fill:white;stroke:black;stroke-width:1" /><text x="690" y="1480" font-size="10" style="fill:blue">nacimiento</text><path d="M660 1490 C680 1490 660 1490 680 1490" style="fill:transparent;stroke:black" /><text x="690" y="1490" font-size="8" style="fill:black">lugar: Oviedo</text><text x="690" y="1500" font-size="8" style="fill:black">fecha: 1970-12-11</text><rect x="900" y="1470" width="200" height="40" style="fill:white;stroke:black;stroke-width:1" /><text x="910" y="1480" font-size="10" style="fill:blue">coordenadas</text><path d="M880 1490 C900 1490 880 1490 900 1490" style="fill:transparent;stroke:black" /><text x="910" y="1490" font-size="8" style="fill:black">lat: 43.363433</text><text x="910" y="1500" font-size="8" style="fill:black">long: -5.8633631</text><text x="910" y="1510" font-size="8" style="fill:black">alt: 257.1425868</text><rect x="680" y="1570" width="200" height="40" style="fill:white;stroke:black;stroke-width:1" /><text x="690" y="1580" font-size="10" style="fill:blue">residencia</text><path d="M660 1490 C680 1490 660 1590 680 1590" style="fill:transparent;stroke:black" /><text x="690" y="1590" font-size="8" style="fill:black">lugar: Caboalles de Abajo</text><rect x="900" y="1570" width="200" height="40" style="fill:white;stroke:black;stroke-width:1" /><text x="910" y="1580" font-size="10" style="fill:blue">coordenadas</text><path d="M880 1590 C900 1590 880 1590 900 1590" style="fill:transparent;stroke:black" /><text x="910" y="1590" font-size="8" style="fill:black">lat: 42.9526827</text><text x="910" y="1600" font-size="8" style="fill:black">long: -6.3755552</text><text x="910" y="1610" font-size="8" style="fill:black">alt: 1.054.7566915</text><rect x="680" y="1670" width="200" height="40" style="fill:white;stroke:black;stroke-width:1" /><text x="690" y="1680" font-size="10" style="fill:blue">fotografia</text><path d="M660 1490 C680 1490 660 1690 680 1690" style="fill:transparent;stroke:black" /><text x="690" y="1690" font-size="8" style="fill:black">url: luis.jpg</text><rect x="680" y="1720" width="200" height="40" style="fill:white;stroke:black;stroke-width:1" /><text x="690" y="1730" font-size="10" style="fill:blue">amigo</text><path d="M660 1490 C680 1490 660 1740 680 1740" style="fill:transparent;stroke:black" /><text x="690" y="1740" font-size="8" style="fill:black">nombre: Manuel</text><text x="690" y="1750" font-size="8" style="fill:black">apellidos: Menendez Gutierrez</text><text x="690" y="1760" font-size="8" style="fill:black">comentarios: Primer universitario</text><rect x="900" y="1720" width="200" height="40" style="fill:white;stroke:black;stroke-width:1" /><text x="910" y="1730" font-size="10" style="fill:blue">nacimiento</text><path d="M880 1740 C900 1740 880 1740 900 1740" style="fill:transparent;stroke:black" /><text x="910" y="1740" font-size="8" style="fill:black">lugar: Cangas de Onís</text><text x="910" y="1750" font-size="8" style="fill:black">fecha: 1941-07-29</text><rect x="1120" y="1720" width="200" height="40" style="fill:white;stroke:black;stroke-width:1" /><text x="1130" y="1730" font-size="10" style="fill:blue">coordenadas</text><path d="M1100 1740 C1120 1740 1100 1740 1120 1740" style="fill:transparent;stroke:black" /><text x="1130" y="1740" font-size="8" style="fill:black">lat: 43.3507281</text><text x="1130" y="1750" font-size="8" style="fill:black">long: -5.1287966</text><text x="1130" y="1760" font-size="8" style="fill:black">alt: 66.3388045</text><rect x="900" y="1820" width="200" height="40" style="fill:white;stroke:black;stroke-width:1" /><text x="910" y="1830" font-size="10" style="fill:blue">residencia</text><path d="M880 1740 C900 1740 880 1840 900 1840" style="fill:transparent;stroke:black" /><text x="910" y="1840" font-size="8" style="fill:black">lugar: Caboalles de Abajo</text><rect x="1120" y="1820" width="200" height="40" style="fill:white;stroke:black;stroke-width:1" /><text x="1130" y="1830" font-size="10" style="fill:blue">coordenadas</text><path d="M1100 1840 C1120 1840 1100 1840 1120 1840" style="fill:transparent;stroke:black" /><text x="1130" y="1840" font-size="8" style="fill:black">lat: 42.9526827</text><text x="1130" y="1850" font-size="8" style="fill:black">long: -6.3755552</text><text x="1130" y="1860" font-size="8" style="fill:black">alt: 1.054.7566915</text><rect x="900" y="1920" width="200" height="40" style="fill:white;stroke:black;stroke-width:1" /><text x="910" y="1930" font-size="10" style="fill:blue">fotografia</text><path d="M880 1740 C900 1740 880 1940 900 1940" style="fill:transparent;stroke:black" /><text x="910" y="1940" font-size="8" style="fill:black">url: manuel.jpg</text><rect x="680" y="2020" width="200" height="40" style="fill:white;stroke:black;stroke-width:1" /><text x="690" y="2030" font-size="10" style="fill:blue">amigo</text><path d="M660 1490 C680 1490 660 2040 680 2040" style="fill:transparent;stroke:black" /><text x="690" y="2040" font-size="8" style="fill:black">nombre: Maria Concepcion</text><text x="690" y="2050" font-size="8" style="fill:black">apellidos: Fernanez Garcia</text><text x="690" y="2060" font-size="8" style="fill:black">comentarios: Propietaria de una tienda</text><rect x="900" y="2020" width="200" height="40" style="fill:white;stroke:black;stroke-width:1" /><text x="910" y="2030" font-size="10" style="fill:blue">nacimiento</text><path d="M880 2040 C900 2040 880 2040 900 2040" style="fill:transparent;stroke:black" /><text x="910" y="2040" font-size="8" style="fill:black">lugar: San Juan de Parres</text><text x="910" y="2050" font-size="8" style="fill:black">fecha: 1943-05-13</text><rect x="1120" y="2020" width="200" height="40" style="fill:white;stroke:black;stroke-width:1" /><text x="1130" y="2030" font-size="10" style="fill:blue">coordenadas</text><path d="M1100 2040 C1120 2040 1100 2040 1120 2040" style="fill:transparent;stroke:black" /><text x="1130" y="2040" font-size="8" style="fill:black">lat: 43.3546285</text><text x="1130" y="2050" font-size="8" style="fill:black">long: -5.1478346</text><text x="1130" y="2060" font-size="8" style="fill:black">alt: 168.933651</text><rect x="900" y="2120" width="200" height="40" style="fill:white;stroke:black;stroke-width:1" /><text x="910" y="2130" font-size="10" style="fill:blue">residencia</text><path d="M880 2040 C900 2040 880 2140 900 2140" style="fill:transparent;stroke:black" /><text x="910" y="2140" font-size="8" style="fill:black">lugar: Caboalles de Abajo</text><rect x="1120" y="2120" width="200" height="40" style="fill:white;stroke:black;stroke-width:1" /><text x="1130" y="2130" font-size="10" style="fill:blue">coordenadas</text><path d="M1100 2140 C1120 2140 1100 2140 1120 2140" style="fill:transparent;stroke:black" /><text x="1130" y="2140" font-size="8" style="fill:black">lat: 42.9526827</text><text x="1130" y="2150" font-size="8" style="fill:black">long: -6.3755552</text><text x="1130" y="2160" font-size="8" style="fill:black">alt: 1.054.7566915</text><rect x="900" y="2220" width="200" height="40" style="fill:white;stroke:black;stroke-width:1" /><text x="910" y="2230" font-size="10" style="fill:blue">fotografia</text><path d="M880 2040 C900 2040 880 2240 900 2240" style="fill:transparent;stroke:black" /><text x="910" y="2240" font-size="8" style="fill:black">url: concha.jpg</text><rect x="680" y="2320" width="200" height="40" style="fill:white;stroke:black;stroke-width:1" /><text x="690" y="2330" font-size="10" style="fill:blue">amigo</text><path d="M660 1490 C680 1490 660 2340 680 2340" style="fill:transparent;stroke:black" /><text x="690" y="2340" font-size="8" style="fill:black">nombre: Laura</text><text x="690" y="2350" font-size="8" style="fill:black">apellidos: Garcia Delgado</text><text x="690" y="2360" font-size="8" style="fill:black">comentarios: Agricultora</text><rect x="900" y="2320" width="200" height="40" style="fill:white;stroke:black;stroke-width:1" /><text x="910" y="2330" font-size="10" style="fill:blue">nacimiento</text><path d="M880 2340 C900 2340 880 2340 900 2340" style="fill:transparent;stroke:black" /><text x="910" y="2340" font-size="8" style="fill:black">lugar: San Juan de Parres</text><text x="910" y="2350" font-size="8" style="fill:black">fecha: 1918-01-14</text><rect x="1120" y="2320" width="200" height="40" style="fill:white;stroke:black;stroke-width:1" /><text x="1130" y="2330" font-size="10" style="fill:blue">coordenadas</text><path d="M1100 2340 C1120 2340 1100 2340 1120 2340" style="fill:transparent;stroke:black" /><text x="1130" y="2340" font-size="8" style="fill:black">lat: 43.3539544</text><text x="1130" y="2350" font-size="8" style="fill:black">long: -5.1482913</text><text x="1130" y="2360" font-size="8" style="fill:black">alt: 158.8678707</text><rect x="900" y="2420" width="200" height="40" style="fill:white;stroke:black;stroke-width:1" /><text x="910" y="2430" font-size="10" style="fill:blue">residencia</text><path d="M880 2340 C900 2340 880 2440 900 2440" style="fill:transparent;stroke:black" /><text x="910" y="2440" font-size="8" style="fill:black">lugar: San Juan de Parres</text><rect x="1120" y="2420" width="200" height="40" style="fill:white;stroke:black;stroke-width:1" /><text x="1130" y="2430" font-size="10" style="fill:blue">coordenadas</text><path d="M1100 2440 C1120 2440 1100 2440 1120 2440" style="fill:transparent;stroke:black" /><text x="1130" y="2440" font-size="8" style="fill:black">lat: 43.3546285</text><text x="1130" y="2450" font-size="8" style="fill:black">long: -5.1478346</text><text x="1130" y="2460" font-size="8" style="fill:black">alt: 168.933651</text><rect x="900" y="2520" width="200" height="40" style="fill:white;stroke:black;stroke-width:1" /><text x="910" y="2530" font-size="10" style="fill:blue">fotografia</text><path d="M880 2340 C900 2340 880 2540 900 2540" style="fill:transparent;stroke:black" /><text x="910" y="2540" font-size="8" style="fill:black">url: laura.jpg</text><rect x="460" y="2670" width="200" height="40" style="fill:white;stroke:black;stroke-width:1" /><text x="470" y="2680" font-size="10" style="fill:blue">amigo</text><path d="M440 40 C460 40 440 2690 460 2690" style="fill:transparent;stroke:black" /><text x="470" y="2690" font-size="8" style="fill:black">nombre: Ana</text><text x="470" y="2700" font-size="8" style="fill:black">apellidos: Rodriguez Garcia</text><text x="470" y="2710" font-size="8" style="fill:black">comentarios: Madre</text><rect x="680" y="2670" width="200" height="40" style="fill:white;stroke:black;stroke-width:1" /><text x="690" y="2680" font-size="10" style="fill:blue">nacimiento</text><path d="M660 2690 C680 2690 660 2690 680 2690" style="fill:transparent;stroke:black" /><text x="690" y="2690" font-size="8" style="fill:black">lugar: Villablino</text><text x="690" y="2700" font-size="8" style="fill:black">fecha: 1972-11-21</text><rect x="900" y="2670" width="200" height="40" style="fill:white;stroke:black;stroke-width:1" /><text x="910" y="2680" font-size="10" style="fill:blue">coordenadas</text><path d="M880 2690 C900 2690 880 2690 900 2690" style="fill:transparent;stroke:black" /><text x="910" y="2690" font-size="8" style="fill:black">lat: 42.9449357</text><text x="910" y="2700" font-size="8" style="fill:black">long: -6.3295471</text><text x="910" y="2710" font-size="8" style="fill:black">alt: 1.037.5875016</text><rect x="680" y="2770" width="200" height="40" style="fill:white;stroke:black;stroke-width:1" /><text x="690" y="2780" font-size="10" style="fill:blue">residencia</text><path d="M660 2690 C680 2690 660 2790 680 2790" style="fill:transparent;stroke:black" /><text x="690" y="2790" font-size="8" style="fill:black">lugar: Caboalles de Abajo</text><rect x="900" y="2770" width="200" height="40" style="fill:white;stroke:black;stroke-width:1" /><text x="910" y="2780" font-size="10" style="fill:blue">coordenadas</text><path d="M880 2790 C900 2790 880 2790 900 2790" style="fill:transparent;stroke:black" /><text x="910" y="2790" font-size="8" style="fill:black">lat: 42.9526827</text><text x="910" y="2800" font-size="8" style="fill:black">long: -6.3755552</text><text x="910" y="2810" font-size="8" style="fill:black">alt: 1.054.7566915</text><rect x="680" y="2870" width="200" height="40" style="fill:white;stroke:black;stroke-width:1" /><text x="690" y="2880" font-size="10" style="fill:blue">fotografia</text><path d="M660 2690 C680 2690 660 2890 680 2890" style="fill:transparent;stroke:black" /><text x="690" y="2890" font-size="8" style="fill:black">url: ana.jpg</text><rect x="680" y="2920" width="200" height="40" style="fill:white;stroke:black;stroke-width:1" /><text x="690" y="2930" font-size="10" style="fill:blue">amigo</text><path d="M660 2690 C680 2690 660 2940 680 2940" style="fill:transparent;stroke:black" /><text x="690" y="2940" font-size="8" style="fill:black">nombre: Maria Jose</text><text x="690" y="2950" font-size="8" style="fill:black">apellidos: Garcia Palomero</text><text x="690" y="2960" font-size="8" style="fill:black">comentarios: Hija única</text><rect x="900" y="2920" width="200" height="40" style="fill:white;stroke:black;stroke-width:1" /><text x="910" y="2930" font-size="10" style="fill:blue">nacimiento</text><path d="M880 2940 C900 2940 880 2940 900 2940" style="fill:transparent;stroke:black" /><text x="910" y="2940" font-size="8" style="fill:black">lugar: Caboalles de Abajo</text><text x="910" y="2950" font-size="8" style="fill:black">fecha: 1920-02-14</text><rect x="1120" y="2920" width="200" height="40" style="fill:white;stroke:black;stroke-width:1" /><text x="1130" y="2930" font-size="10" style="fill:blue">coordenadas</text><path d="M1100 2940 C1120 2940 1100 2940 1120 2940" style="fill:transparent;stroke:black" /><text x="1130" y="2940" font-size="8" style="fill:black">lat: 42.9521477</text><text x="1130" y="2950" font-size="8" style="fill:black">long: -6.374352</text><text x="1130" y="2960" font-size="8" style="fill:black">alt: 1.044.0396361</text><rect x="900" y="3020" width="200" height="40" style="fill:white;stroke:black;stroke-width:1" /><text x="910" y="3030" font-size="10" style="fill:blue">residencia</text><path d="M880 2940 C900 2940 880 3040 900 3040" style="fill:transparent;stroke:black" /><text x="910" y="3040" font-size="8" style="fill:black">lugar: Caboalles de Abajo</text><rect x="1120" y="3020" width="200" height="40" style="fill:white;stroke:black;stroke-width:1" /><text x="1130" y="3030" font-size="10" style="fill:blue">coordenadas</text><path d="M1100 3040 C1120 3040 1100 3040 1120 3040" style="fill:transparent;stroke:black" /><text x="1130" y="3040" font-size="8" style="fill:black">lat: 42.9526827</text><text x="1130" y="3050" font-size="8" style="fill:black">long: -6.3755552</text><text x="1130" y="3060" font-size="8" style="fill:black">alt: 1.054.7566915</text><rect x="900" y="3120" width="200" height="40" style="fill:white;stroke:black;stroke-width:1" /><text x="910" y="3130" font-size="10" style="fill:blue">fotografia</text><path d="M880 2940 C900 2940 880 3140 900 3140" style="fill:transparent;stroke:black" /><text x="910" y="3140" font-size="8" style="fill:black">url: marijo.jpg</text><rect x="680" y="3220" width="200" height="40" style="fill:white;stroke:black;stroke-width:1" /><text x="690" y="3230" font-size="10" style="fill:blue">amigo</text><path d="M660 2690 C680 2690 660 3240 680 3240" style="fill:transparent;stroke:black" /><text x="690" y="3240" font-size="8" style="fill:black">nombre: Jose Maria</text><text x="690" y="3250" font-size="8" style="fill:black">apellidos: Garcia Marrero</text><text x="690" y="3260" font-size="8" style="fill:black">comentarios: Minero</text><rect x="900" y="3220" width="200" height="40" style="fill:white;stroke:black;stroke-width:1" /><text x="910" y="3230" font-size="10" style="fill:blue">nacimiento</text><path d="M880 3240 C900 3240 880 3240 900 3240" style="fill:transparent;stroke:black" /><text x="910" y="3240" font-size="8" style="fill:black">lugar: Caboalles de Abajo</text><text x="910" y="3250" font-size="8" style="fill:black">fecha: 1920-02-14</text><rect x="1120" y="3220" width="200" height="40" style="fill:white;stroke:black;stroke-width:1" /><text x="1130" y="3230" font-size="10" style="fill:blue">coordenadas</text><path d="M1100 3240 C1120 3240 1100 3240 1120 3240" style="fill:transparent;stroke:black" /><text x="1130" y="3240" font-size="8" style="fill:black">lat: 42.9526827</text><text x="1130" y="3250" font-size="8" style="fill:black">long: -6.3755552</text><text x="1130" y="3260" font-size="8" style="fill:black">alt: 1.054.7566915</text><rect x="900" y="3320" width="200" height="40" style="fill:white;stroke:black;stroke-width:1" /><text x="910" y="3330" font-size="10" style="fill:blue">residencia</text><path d="M880 3240 C900 3240 880 3340 900 3340" style="fill:transparent;stroke:black" /><text x="910" y="3340" font-size="8" style="fill:black">lugar: Caboalles de Abajo</text><rect x="1120" y="3320" width="200" height="40" style="fill:white;stroke:black;stroke-width:1" /><text x="1130" y="3330" font-size="10" style="fill:blue">coordenadas</text><path d="M1100 3340 C1120 3340 1100 3340 1120 3340" style="fill:transparent;stroke:black" /><text x="1130" y="3340" font-size="8" style="fill:black">lat: 42.9526827</text><text x="1130" y="3350" font-size="8" style="fill:black">long: -6.3755552</text><text x="1130" y="3360" font-size="8" style="fill:black">alt: 1.054.7566915</text><rect x="900" y="3420" width="200" height="40" style="fill:white;stroke:black;stroke-width:1" /><text x="910" y="3430" font-size="10" style="fill:blue">fotografia</text><path d="M880 3240 C900 3240 880 3440 900 3440" style="fill:transparent;stroke:black" /><text x="910" y="3440" font-size="8" style="fill:black">url: josemari.jpg</text><rect x="680" y="3520" width="200" height="40" style="fill:white;stroke:black;stroke-width:1" /><text x="690" y="3530" font-size="10" style="fill:blue">amigo</text><path d="M660 2690 C680 2690 660 3540 680 3540" style="fill:transparent;stroke:black" /><text x="690" y="3540" font-size="8" style="fill:black">nombre: Munia</text><text x="690" y="3550" font-size="8" style="fill:black">apellidos: Valle Dominguez</text><text x="690" y="3560" font-size="8" style="fill:black">comentarios: Madre de tres hijos</text><rect x="900" y="3520" width="200" height="40" style="fill:white;stroke:black;stroke-width:1" /><text x="910" y="3530" font-size="10" style="fill:blue">nacimiento</text><path d="M880 3540 C900 3540 880 3540 900 3540" style="fill:transparent;stroke:black" /><text x="910" y="3540" font-size="8" style="fill:black">lugar: Llamas de Laciana</text><text x="910" y="3550" font-size="8" style="fill:black">fecha: 1920-10-25</text><rect x="1120" y="3520" width="200" height="40" style="fill:white;stroke:black;stroke-width:1" /><text x="1130" y="3530" font-size="10" style="fill:blue">coordenadas</text><path d="M1100 3540 C1120 3540 1100 3540 1120 3540" style="fill:transparent;stroke:black" /><text x="1130" y="3540" font-size="8" style="fill:black">lat: 42.9285463</text><text x="1130" y="3550" font-size="8" style="fill:black">long: -6.3223696</text><text x="1130" y="3560" font-size="8" style="fill:black">alt: 994.4560698</text><rect x="900" y="3620" width="200" height="40" style="fill:white;stroke:black;stroke-width:1" /><text x="910" y="3630" font-size="10" style="fill:blue">residencia</text><path d="M880 3540 C900 3540 880 3640 900 3640" style="fill:transparent;stroke:black" /><text x="910" y="3640" font-size="8" style="fill:black">lugar: Caboalles de Abajo</text><rect x="1120" y="3620" width="200" height="40" style="fill:white;stroke:black;stroke-width:1" /><text x="1130" y="3630" font-size="10" style="fill:blue">coordenadas</text><path d="M1100 3640 C1120 3640 1100 3640 1120 3640" style="fill:transparent;stroke:black" /><text x="1130" y="3640" font-size="8" style="fill:black">lat: 42.9526827</text><text x="1130" y="3650" font-size="8" style="fill:black">long: -6.3755552</text><text x="1130" y="3660" font-size="8" style="fill:black">alt: 1.054.7566915</text><rect x="900" y="3720" width="200" height="40" style="fill:white;stroke:black;stroke-width:1" /><text x="910" y="3730" font-size="10" style="fill:blue">fotografia</text><path d="M880 3540 C900 3540 880 3740 900 3740" style="fill:transparent;stroke:black" /><text x="910" y="3740" font-size="8" style="fill:black">url: munia.jpg</text></svg>