<?xml version="1.0" encoding="utf-8"?><svg width="auto" height="3970" style="overflow:visible " version="1.1" xmlns="http://www.w3.org/2000/svg"><rect x="20" y="20" width="200" height="40" style="fill:white;stroke:black;stroke-width:1" /><text x="30" y="30" font-size="10" style="fill:blue">red_social</text><text x="30" y="40" font-size="8" style="fill:black">xmlns: http://tempuri.org/red_social</text><text x="30" y="50" font-size="8" style="fill:black">xmlns:xsi: http://www.w3.org/2001/XMLSchema-instance</text><text x="30" y="60" font-size="8" style="fill:black">xsi:noNamespaceSchemaLocation: red_social.xsd</text><rect x="240" y="20" width="200" height="40" style="fill:white;stroke:black;stroke-width:1" /><text x="250" y="30" font-size="10" style="fill:blue">amigo</text><path d="M220 40 C240 40 220 40 240 40" style="fill:transparent;stroke:black" /><text x="250" y="40" font-size="8" style="fill:black">nombre: Miguel</text><text x="250" y="50" font-size="8" style="fill:black">apellidos: Menendez Rodriguez</text><text x="250" y="60" font-size="8" style="fill:black">comentarios: Estudiante</text><rect x="460" y="20" width="200" height="40" style="fill:white;stroke:black;stroke-width:1" /><text x="470" y="30" font-size="10" style="fill:blue">nacimiento</text><path d="M440 40 C460 40 440 40 460 40" style="fill:transparent;stroke:black" /><text x="470" y="40" font-size="8" style="fill:black">lugar: Oviedo</text><text x="470" y="50" font-size="8" style="fill:black">fecha: 2000-08-29</text><rect x="680" y="20" width="200" height="40" style="fill:white;stroke:black;stroke-width:1" /><text x="690" y="30" font-size="10" style="fill:blue">coordenadas</text><path d="M660 40 C680 40 660 40 680 40" style="fill:transparent;stroke:black" /><text x="690" y="40" font-size="8" style="fill:black">lat: 43.354933</text><text x="690" y="50" font-size="8" style="fill:black">long: -5.8514295</text><text x="690" y="60" font-size="8" style="fill:black">alt: 259.9078972</text><rect x="460" y="120" width="200" height="40" style="fill:white;stroke:black;stroke-width:1" /><text x="470" y="130" font-size="10" style="fill:blue">residencia</text><path d="M440 40 C460 40 440 140 460 140" style="fill:transparent;stroke:black" /><text x="470" y="140" font-size="8" style="fill:black">lugar: Caboalles de Abajo</text><rect x="680" y="120" width="200" height="40" style="fill:white;stroke:black;stroke-width:1" /><text x="690" y="130" font-size="10" style="fill:blue">coordenadas</text><path d="M660 140 C680 140 660 140 680 140" style="fill:transparent;stroke:black" /><text x="690" y="140" font-size="8" style="fill:black">lat: 42.9526827</text><text x="690" y="150" font-size="8" style="fill:black">long: -6.3755552</text><text x="690" y="160" font-size="8" style="fill:black">alt: 1.054.7566915</text><rect x="460" y="220" width="200" height="40" style="fill:white;stroke:black;stroke-width:1" /><text x="470" y="230" font-size="10" style="fill:blue">amigo</text><path d="M440 40 C460 40 440 240 460 240" style="fill:transparent;stroke:black" /><text x="470" y="240" font-size="8" style="fill:black">nombre: Ana Maria</text><text x="470" y="250" font-size="8" style="fill:black">apellidos: Palomero Pescador</text><text x="470" y="260" font-size="8" style="fill:black">comentarios: Huérfana de padre</text><rect x="680" y="220" width="200" height="40" style="fill:white;stroke:black;stroke-width:1" /><text x="690" y="230" font-size="10" style="fill:blue">nacimiento</text><path d="M660 240 C680 240 660 240 680 240" style="fill:transparent;stroke:black" /><text x="690" y="240" font-size="8" style="fill:black">lugar: Caboalles de Abajo</text><text x="690" y="250" font-size="8" style="fill:black">fecha: 1917-12-03</text><rect x="900" y="220" width="200" height="40" style="fill:white;stroke:black;stroke-width:1" /><text x="910" y="230" font-size="10" style="fill:blue">coordenadas</text><path d="M880 240 C900 240 880 240 900 240" style="fill:transparent;stroke:black" /><text x="910" y="240" font-size="8" style="fill:black">lat: 42.9521477</text><text x="910" y="250" font-size="8" style="fill:black">long: -6.374352</text><text x="910" y="260" font-size="8" style="fill:black">alt: 1.044.0396361</text><rect x="680" y="320" width="200" height="40" style="fill:white;stroke:black;stroke-width:1" /><text x="690" y="330" font-size="10" style="fill:blue">residencia</text><path d="M660 240 C680 240 660 340 680 340" style="fill:transparent;stroke:black" /><text x="690" y="340" font-size="8" style="fill:black">lugar: Caboalles de Abajo</text><rect x="900" y="320" width="200" height="40" style="fill:white;stroke:black;stroke-width:1" /><text x="910" y="330" font-size="10" style="fill:blue">coordenadas</text><path d="M880 340 C900 340 880 340 900 340" style="fill:transparent;stroke:black" /><text x="910" y="340" font-size="8" style="fill:black">lat: 42.9526827</text><text x="910" y="350" font-size="8" style="fill:black">long: -6.3755552</text><text x="910" y="360" font-size="8" style="fill:black">alt: 1.054.7566915</text><rect x="680" y="420" width="200" height="40" style="fill:white;stroke:black;stroke-width:1" /><text x="690" y="430" font-size="10" style="fill:blue">amigo</text><path d="M660 240 C680 240 660 440 680 440" style="fill:transparent;stroke:black" /><text x="690" y="440" font-size="8" style="fill:black">nombre: Javier</text><text x="690" y="450" font-size="8" style="fill:black">apellidos: Menendez Jimenez</text><text x="690" y="460" font-size="8" style="fill:black">comentarios: Ganadero</text><rect x="900" y="420" width="200" height="40" style="fill:white;stroke:black;stroke-width:1" /><text x="910" y="430" font-size="10" style="fill:blue">nacimiento</text><path d="M880 440 C900 440 880 440 900 440" style="fill:transparent;stroke:black" /><text x="910" y="440" font-size="8" style="fill:black">lugar: Helgueras</text><text x="910" y="450" font-size="8" style="fill:black">fecha: 1916-04-17</text><rect x="1120" y="420" width="200" height="40" style="fill:white;stroke:black;stroke-width:1" /><text x="1130" y="430" font-size="10" style="fill:blue">coordenadas</text><path d="M1100 440 C1120 440 1100 440 1120 440" style="fill:transparent;stroke:black" /><text x="1130" y="440" font-size="8" style="fill:black">lat: 43.3563116</text><text x="1130" y="450" font-size="8" style="fill:black">long: -5.1206803</text><text x="1130" y="460" font-size="8" style="fill:black">alt: 199.8421655</text><rect x="900" y="520" width="200" height="40" style="fill:white;stroke:black;stroke-width:1" /><text x="910" y="530" font-size="10" style="fill:blue">residencia</text><path d="M880 440 C900 440 880 540 900 540" style="fill:transparent;stroke:black" /><text x="910" y="540" font-size="8" style="fill:black">lugar: Cangas de Onís</text><rect x="1120" y="520" width="200" height="40" style="fill:white;stroke:black;stroke-width:1" /><text x="1130" y="530" font-size="10" style="fill:blue">coordenadas</text><path d="M1100 540 C1120 540 1100 540 1120 540" style="fill:transparent;stroke:black" /><text x="1130" y="540" font-size="8" style="fill:black">lat: 43.3507281</text><text x="1130" y="550" font-size="8" style="fill:black">long: -5.1287966</text><text x="1130" y="560" font-size="8" style="fill:black">alt: 66.3388045</text><rect x="900" y="620" width="200" height="40" style="fill:white;stroke:black;stroke-width:1" /><text x="910" y="630" font-size="10" style="fill:blue">fotografia</text><path d="M880 440 C900 440 880 640 900 640" style="fill:transparent;stroke:black" /><text x="910" y="640" font-size="8" style="fill:black">url: javier.jpg</text><rect x="680" y="720" width="200" height="40" style="fill:white;stroke:black;stroke-width:1" /><text x="690" y="730" font-size="10" style="fill:blue">amigo</text><path d="M660 240 C680 240 660 740 680 740" style="fill:transparent;stroke:black" /><text x="690" y="740" font-size="8" style="fill:black">nombre: Lucia</text><text x="690" y="750" font-size="8" style="fill:black">apellidos: Gutierrez Guanes</text><text x="690" y="760" font-size="8" style="fill:black">comentarios: Ganadera</text><rect x="900" y="720" width="200" height="40" style="fill:white;stroke:black;stroke-width:1" /><text x="910" y="730" font-size="10" style="fill:blue">nacimiento</text><path d="M880 740 C900 740 880 740 900 740" style="fill:transparent;stroke:black" /><text x="910" y="740" font-size="8" style="fill:black">lugar: Celango</text><text x="910" y="750" font-size="8" style="fill:black">fecha: 1919-12-28</text><rect x="1120" y="720" width="200" height="40" style="fill:white;stroke:black;stroke-width:1" /><text x="1130" y="730" font-size="10" style="fill:blue">coordenadas</text><path d="M1100 740 C1120 740 1100 740 1120 740" style="fill:transparent;stroke:black" /><text x="1130" y="740" font-size="8" style="fill:black">lat: 43.3567593</text><text x="1130" y="750" font-size="8" style="fill:black">long: -5.112205</text><text x="1130" y="760" font-size="8" style="fill:black">alt: 299.7768765</text><rect x="900" y="820" width="200" height="40" style="fill:white;stroke:black;stroke-width:1" /><text x="910" y="830" font-size="10" style="fill:blue">residencia</text><path d="M880 740 C900 740 880 840 900 840" style="fill:transparent;stroke:black" /><text x="910" y="840" font-size="8" style="fill:black">lugar: Cangas de Onís</text><rect x="1120" y="820" width="200" height="40" style="fill:white;stroke:black;stroke-width:1" /><text x="1130" y="830" font-size="10" style="fill:blue">coordenadas</text><path d="M1100 840 C1120 840 1100 840 1120 840" style="fill:transparent;stroke:black" /><text x="1130" y="840" font-size="8" style="fill:black">lat: 43.3507281</text><text x="1130" y="850" font-size="8" style="fill:black">long: -5.1287966</text><text x="1130" y="860" font-size="8" style="fill:black">alt: 66.3388045</text><rect x="900" y="920" width="200" height="40" style="fill:white;stroke:black;stroke-width:1" /><text x="910" y="930" font-size="10" style="fill:blue">fotografia</text><path d="M880 740 C900 740 880 940 900 940" style="fill:transparent;stroke:black" /><text x="910" y="940" font-size="8" style="fill:black">url: lucia.jpg</text><rect x="680" y="1020" width="200" height="40" style="fill:white;stroke:black;stroke-width:1" /><text x="690" y="1030" font-size="10" style="fill:blue">amigo</text><path d="M660 240 C680 240 660 1040 680 1040" style="fill:transparent;stroke:black" /><text x="690" y="1040" font-size="8" style="fill:black">nombre: Alejandro</text><text x="690" y="1050" font-size="8" style="fill:black">apellidos: Fernandez Varela</text><text x="690" y="1060" font-size="8" style="fill:black">comentarios: Agricultor</text><rect x="900" y="1020" width="200" height="40" style="fill:white;stroke:black;stroke-width:1" /><text x="910" y="1030" font-size="10" style="fill:blue">nacimiento</text><path d="M880 1040 C900 1040 880 1040 900 1040" style="fill:transparent;stroke:black" /><text x="910" y="1040" font-size="8" style="fill:black">lugar: San Juan de Parres</text><text x="910" y="1050" font-size="8" style="fill:black">fecha: 1918-06-20</text><rect x="1120" y="1020" width="200" height="40" style="fill:white;stroke:black;stroke-width:1" /><text x="1130" y="1030" font-size="10" style="fill:blue">coordenadas</text><path d="M1100 1040 C1120 1040 1100 1040 1120 1040" style="fill:transparent;stroke:black" /><text x="1130" y="1040" font-size="8" style="fill:black">lat: 43.3546285</text><text x="1130" y="1050" font-size="8" style="fill:black">long: -5.1478346</text><text x="1130" y="1060" font-size="8" style="fill:black">alt: 168.933651</text><rect x="900" y="1120" width="200" height="40" style="fill:white;stroke:black;stroke-width:1" /><text x="910" y="1130" font-size="10" style="fill:blue">residencia</text><path d="M880 1040 C900 1040 880 1140 900 1140" style="fill:transparent;stroke:black" /><text x="910" y="1140" font-size="8" style="fill:black">lugar: San Juan de Parres</text><rect x="1120" y="1120" width="200" height="40" style="fill:white;stroke:black;stroke-width:1" /><text x="1130" y="1130" font-size="10" style="fill:blue">coordenadas</text><path d="M1100 1140 C1120 1140 1100 1140 1120 1140" style="fill:transparent;stroke:black" /><text x="1130" y="1140" font-size="8" style="fill:black">lat: 43.3546285</text><text x="1130" y="1150" font-size="8" style="fill:black">long: -5.1478346</text><text x="1130" y="1160" font-size="8" style="fill:black">alt: 168.933651</text><rect x="900" y="1220" width="200" height="40" style="fill:white;stroke:black;stroke-width:1" /><text x="910" y="1230" font-size="10" style="fill:blue">fotografia</text><path d="M880 1040 C900 1040 880 1240 900 1240" style="fill:transparent;stroke:black" /><text x="910" y="1240" font-size="8" style="fill:black">url: alex.jpg</text><rect x="680" y="1320" width="200" height="40" style="fill:white;stroke:black;stroke-width:1" /><text x="690" y="1330" font-size="10" style="fill:blue">fotografia</text><path d="M660 240 C680 240 660 1340 680 1340" style="fill:transparent;stroke:black" /><text x="690" y="1340" font-size="8" style="fill:black">url: anamari.jpg</text><rect x="460" y="1420" width="200" height="40" style="fill:white;stroke:black;stroke-width:1" /><text x="470" y="1430" font-size="10" style="fill:blue">amigo</text><path d="M440 40 C460 40 440 1440 460 1440" style="fill:transparent;stroke:black" /><text x="470" y="1440" font-size="8" style="fill:black">nombre: Luis</text><text x="470" y="1450" font-size="8" style="fill:black">apellidos: Menendez Fernandez</text><text x="470" y="1460" font-size="8" style="fill:black">comentarios: Padre</text><rect x="680" y="1420" width="200" height="40" style="fill:white;stroke:black;stroke-width:1" /><text x="690" y="1430" font-size="10" style="fill:blue">nacimiento</text><path d="M660 1440 C680 1440 660 1440 680 1440" style="fill:transparent;stroke:black" /><text x="690" y="1440" font-size="8" style="fill:black">lugar: Oviedo</text><text x="690" y="1450" font-size="8" style="fill:black">fecha: 1970-12-11</text><rect x="900" y="1420" width="200" height="40" style="fill:white;stroke:black;stroke-width:1" /><text x="910" y="1430" font-size="10" style="fill:blue">coordenadas</text><path d="M880 1440 C900 1440 880 1440 900 1440" style="fill:transparent;stroke:black" /><text x="910" y="1440" font-size="8" style="fill:black">lat: 43.363433</text><text x="910" y="1450" font-size="8" style="fill:black">long: -5.8633631</text><text x="910" y="1460" font-size="8" style="fill:black">alt: 257.1425868</text><rect x="680" y="1520" width="200" height="40" style="fill:white;stroke:black;stroke-width:1" /><text x="690" y="1530" font-size="10" style="fill:blue">residencia</text><path d="M660 1440 C680 1440 660 1540 680 1540" style="fill:transparent;stroke:black" /><text x="690" y="1540" font-size="8" style="fill:black">lugar: Caboalles de Abajo</text><rect x="900" y="1520" width="200" height="40" style="fill:white;stroke:black;stroke-width:1" /><text x="910" y="1530" font-size="10" style="fill:blue">coordenadas</text><path d="M880 1540 C900 1540 880 1540 900 1540" style="fill:transparent;stroke:black" /><text x="910" y="1540" font-size="8" style="fill:black">lat: 42.9526827</text><text x="910" y="1550" font-size="8" style="fill:black">long: -6.3755552</text><text x="910" y="1560" font-size="8" style="fill:black">alt: 1.054.7566915</text><rect x="680" y="1620" width="200" height="40" style="fill:white;stroke:black;stroke-width:1" /><text x="690" y="1630" font-size="10" style="fill:blue">amigo</text><path d="M660 1440 C680 1440 660 1640 680 1640" style="fill:transparent;stroke:black" /><text x="690" y="1640" font-size="8" style="fill:black">nombre: Manuel</text><text x="690" y="1650" font-size="8" style="fill:black">apellidos: Menendez Gutierrez</text><text x="690" y="1660" font-size="8" style="fill:black">comentarios: Primer universitario</text><rect x="900" y="1620" width="200" height="40" style="fill:white;stroke:black;stroke-width:1" /><text x="910" y="1630" font-size="10" style="fill:blue">nacimiento</text><path d="M880 1640 C900 1640 880 1640 900 1640" style="fill:transparent;stroke:black" /><text x="910" y="1640" font-size="8" style="fill:black">lugar: Cangas de Onís</text><text x="910" y="1650" font-size="8" style="fill:black">fecha: 1941-07-29</text><rect x="1120" y="1620" width="200" height="40" style="fill:white;stroke:black;stroke-width:1" /><text x="1130" y="1630" font-size="10" style="fill:blue">coordenadas</text><path d="M1100 1640 C1120 1640 1100 1640 1120 1640" style="fill:transparent;stroke:black" /><text x="1130" y="1640" font-size="8" style="fill:black">lat: 43.3507281</text><text x="1130" y="1650" font-size="8" style="fill:black">long: -5.1287966</text><text x="1130" y="1660" font-size="8" style="fill:black">alt: 66.3388045</text><rect x="900" y="1720" width="200" height="40" style="fill:white;stroke:black;stroke-width:1" /><text x="910" y="1730" font-size="10" style="fill:blue">residencia</text><path d="M880 1640 C900 1640 880 1740 900 1740" style="fill:transparent;stroke:black" /><text x="910" y="1740" font-size="8" style="fill:black">lugar: Caboalles de Abajo</text><rect x="1120" y="1720" width="200" height="40" style="fill:white;stroke:black;stroke-width:1" /><text x="1130" y="1730" font-size="10" style="fill:blue">coordenadas</text><path d="M1100 1740 C1120 1740 1100 1740 1120 1740" style="fill:transparent;stroke:black" /><text x="1130" y="1740" font-size="8" style="fill:black">lat: 42.9526827</text><text x="1130" y="1750" font-size="8" style="fill:black">long: -6.3755552</text><text x="1130" y="1760" font-size="8" style="fill:black">alt: 1.054.7566915</text><rect x="900" y="1820" width="200" height="40" style="fill:white;stroke:black;stroke-width:1" /><text x="910" y="1830" font-size="10" style="fill:blue">fotografia</text><path d="M880 1640 C900 1640 880 1840 900 1840" style="fill:transparent;stroke:black" /><text x="910" y="1840" font-size="8" style="fill:black">url: manuel.jpg</text><rect x="680" y="1920" width="200" height="40" style="fill:white;stroke:black;stroke-width:1" /><text x="690" y="1930" font-size="10" style="fill:blue">amigo</text><path d="M660 1440 C680 1440 660 1940 680 1940" style="fill:transparent;stroke:black" /><text x="690" y="1940" font-size="8" style="fill:black">nombre: Maria Concepcion</text><text x="690" y="1950" font-size="8" style="fill:black">apellidos: Fernanez Garcia</text><text x="690" y="1960" font-size="8" style="fill:black">comentarios: Propietaria de una tienda</text><rect x="900" y="1920" width="200" height="40" style="fill:white;stroke:black;stroke-width:1" /><text x="910" y="1930" font-size="10" style="fill:blue">nacimiento</text><path d="M880 1940 C900 1940 880 1940 900 1940" style="fill:transparent;stroke:black" /><text x="910" y="1940" font-size="8" style="fill:black">lugar: San Juan de Parres</text><text x="910" y="1950" font-size="8" style="fill:black">fecha: 1943-05-13</text><rect x="1120" y="1920" width="200" height="40" style="fill:white;stroke:black;stroke-width:1" /><text x="1130" y="1930" font-size="10" style="fill:blue">coordenadas</text><path d="M1100 1940 C1120 1940 1100 1940 1120 1940" style="fill:transparent;stroke:black" /><text x="1130" y="1940" font-size="8" style="fill:black">lat: 43.3546285</text><text x="1130" y="1950" font-size="8" style="fill:black">long: -5.1478346</text><text x="1130" y="1960" font-size="8" style="fill:black">alt: 168.933651</text><rect x="900" y="2020" width="200" height="40" style="fill:white;stroke:black;stroke-width:1" /><text x="910" y="2030" font-size="10" style="fill:blue">residencia</text><path d="M880 1940 C900 1940 880 2040 900 2040" style="fill:transparent;stroke:black" /><text x="910" y="2040" font-size="8" style="fill:black">lugar: Caboalles de Abajo</text><rect x="1120" y="2020" width="200" height="40" style="fill:white;stroke:black;stroke-width:1" /><text x="1130" y="2030" font-size="10" style="fill:blue">coordenadas</text><path d="M1100 2040 C1120 2040 1100 2040 1120 2040" style="fill:transparent;stroke:black" /><text x="1130" y="2040" font-size="8" style="fill:black">lat: 42.9526827</text><text x="1130" y="2050" font-size="8" style="fill:black">long: -6.3755552</text><text x="1130" y="2060" font-size="8" style="fill:black">alt: 1.054.7566915</text><rect x="900" y="2120" width="200" height="40" style="fill:white;stroke:black;stroke-width:1" /><text x="910" y="2130" font-size="10" style="fill:blue">fotografia</text><path d="M880 1940 C900 1940 880 2140 900 2140" style="fill:transparent;stroke:black" /><text x="910" y="2140" font-size="8" style="fill:black">url: concha.jpg</text><rect x="680" y="2220" width="200" height="40" style="fill:white;stroke:black;stroke-width:1" /><text x="690" y="2230" font-size="10" style="fill:blue">amigo</text><path d="M660 1440 C680 1440 660 2240 680 2240" style="fill:transparent;stroke:black" /><text x="690" y="2240" font-size="8" style="fill:black">nombre: Laura</text><text x="690" y="2250" font-size="8" style="fill:black">apellidos: Garcia Delgado</text><text x="690" y="2260" font-size="8" style="fill:black">comentarios: Agricultora</text><rect x="900" y="2220" width="200" height="40" style="fill:white;stroke:black;stroke-width:1" /><text x="910" y="2230" font-size="10" style="fill:blue">nacimiento</text><path d="M880 2240 C900 2240 880 2240 900 2240" style="fill:transparent;stroke:black" /><text x="910" y="2240" font-size="8" style="fill:black">lugar: San Juan de Parres</text><text x="910" y="2250" font-size="8" style="fill:black">fecha: 1918-01-14</text><rect x="1120" y="2220" width="200" height="40" style="fill:white;stroke:black;stroke-width:1" /><text x="1130" y="2230" font-size="10" style="fill:blue">coordenadas</text><path d="M1100 2240 C1120 2240 1100 2240 1120 2240" style="fill:transparent;stroke:black" /><text x="1130" y="2240" font-size="8" style="fill:black">lat: 43.3539544</text><text x="1130" y="2250" font-size="8" style="fill:black">long: -5.1482913</text><text x="1130" y="2260" font-size="8" style="fill:black">alt: 158.8678707</text><rect x="900" y="2320" width="200" height="40" style="fill:white;stroke:black;stroke-width:1" /><text x="910" y="2330" font-size="10" style="fill:blue">residencia</text><path d="M880 2240 C900 2240 880 2340 900 2340" style="fill:transparent;stroke:black" /><text x="910" y="2340" font-size="8" style="fill:black">lugar: San Juan de Parres</text><rect x="1120" y="2320" width="200" height="40" style="fill:white;stroke:black;stroke-width:1" /><text x="1130" y="2330" font-size="10" style="fill:blue">coordenadas</text><path d="M1100 2340 C1120 2340 1100 2340 1120 2340" style="fill:transparent;stroke:black" /><text x="1130" y="2340" font-size="8" style="fill:black">lat: 43.3546285</text><text x="1130" y="2350" font-size="8" style="fill:black">long: -5.1478346</text><text x="1130" y="2360" font-size="8" style="fill:black">alt: 168.933651</text><rect x="900" y="2420" width="200" height="40" style="fill:white;stroke:black;stroke-width:1" /><text x="910" y="2430" font-size="10" style="fill:blue">fotografia</text><path d="M880 2240 C900 2240 880 2440 900 2440" style="fill:transparent;stroke:black" /><text x="910" y="2440" font-size="8" style="fill:black">url: laura.jpg</text><rect x="680" y="2520" width="200" height="40" style="fill:white;stroke:black;stroke-width:1" /><text x="690" y="2530" font-size="10" style="fill:blue">fotografia</text><path d="M660 1440 C680 1440 660 2540 680 2540" style="fill:transparent;stroke:black" /><text x="690" y="2540" font-size="8" style="fill:black">url: luis.jpg</text><rect x="460" y="2620" width="200" height="40" style="fill:white;stroke:black;stroke-width:1" /><text x="470" y="2630" font-size="10" style="fill:blue">amigo</text><path d="M440 40 C460 40 440 2640 460 2640" style="fill:transparent;stroke:black" /><text x="470" y="2640" font-size="8" style="fill:black">nombre: Ana</text><text x="470" y="2650" font-size="8" style="fill:black">apellidos: Rodriguez Garcia</text><text x="470" y="2660" font-size="8" style="fill:black">comentarios: Madre</text><rect x="680" y="2620" width="200" height="40" style="fill:white;stroke:black;stroke-width:1" /><text x="690" y="2630" font-size="10" style="fill:blue">nacimiento</text><path d="M660 2640 C680 2640 660 2640 680 2640" style="fill:transparent;stroke:black" /><text x="690" y="2640" font-size="8" style="fill:black">lugar: Villablino</text><text x="690" y="2650" font-size="8" style="fill:black">fecha: 1972-11-21</text><rect x="900" y="2620" width="200" height="40" style="fill:white;stroke:black;stroke-width:1" /><text x="910" y="2630" font-size="10" style="fill:blue">coordenadas</text><path d="M880 2640 C900 2640 880 2640 900 2640" style="fill:transparent;stroke:black" /><text x="910" y="2640" font-size="8" style="fill:black">lat: 42.9449357</text><text x="910" y="2650" font-size="8" style="fill:black">long: -6.3295471</text><text x="910" y="2660" font-size="8" style="fill:black">alt: 1.037.5875016</text><rect x="680" y="2720" width="200" height="40" style="fill:white;stroke:black;stroke-width:1" /><text x="690" y="2730" font-size="10" style="fill:blue">residencia</text><path d="M660 2640 C680 2640 660 2740 680 2740" style="fill:transparent;stroke:black" /><text x="690" y="2740" font-size="8" style="fill:black">lugar: Caboalles de Abajo</text><rect x="900" y="2720" width="200" height="40" style="fill:white;stroke:black;stroke-width:1" /><text x="910" y="2730" font-size="10" style="fill:blue">coordenadas</text><path d="M880 2740 C900 2740 880 2740 900 2740" style="fill:transparent;stroke:black" /><text x="910" y="2740" font-size="8" style="fill:black">lat: 42.9526827</text><text x="910" y="2750" font-size="8" style="fill:black">long: -6.3755552</text><text x="910" y="2760" font-size="8" style="fill:black">alt: 1.054.7566915</text><rect x="680" y="2820" width="200" height="40" style="fill:white;stroke:black;stroke-width:1" /><text x="690" y="2830" font-size="10" style="fill:blue">amigo</text><path d="M660 2640 C680 2640 660 2840 680 2840" style="fill:transparent;stroke:black" /><text x="690" y="2840" font-size="8" style="fill:black">nombre: Maria Jose</text><text x="690" y="2850" font-size="8" style="fill:black">apellidos: Garcia Palomero</text><text x="690" y="2860" font-size="8" style="fill:black">comentarios: Hija única</text><rect x="900" y="2820" width="200" height="40" style="fill:white;stroke:black;stroke-width:1" /><text x="910" y="2830" font-size="10" style="fill:blue">nacimiento</text><path d="M880 2840 C900 2840 880 2840 900 2840" style="fill:transparent;stroke:black" /><text x="910" y="2840" font-size="8" style="fill:black">lugar: Caboalles de Abajo</text><text x="910" y="2850" font-size="8" style="fill:black">fecha: 1920-02-14</text><rect x="1120" y="2820" width="200" height="40" style="fill:white;stroke:black;stroke-width:1" /><text x="1130" y="2830" font-size="10" style="fill:blue">coordenadas</text><path d="M1100 2840 C1120 2840 1100 2840 1120 2840" style="fill:transparent;stroke:black" /><text x="1130" y="2840" font-size="8" style="fill:black">lat: 42.9521477</text><text x="1130" y="2850" font-size="8" style="fill:black">long: -6.374352</text><text x="1130" y="2860" font-size="8" style="fill:black">alt: 1.044.0396361</text><rect x="900" y="2920" width="200" height="40" style="fill:white;stroke:black;stroke-width:1" /><text x="910" y="2930" font-size="10" style="fill:blue">residencia</text><path d="M880 2840 C900 2840 880 2940 900 2940" style="fill:transparent;stroke:black" /><text x="910" y="2940" font-size="8" style="fill:black">lugar: Caboalles de Abajo</text><rect x="1120" y="2920" width="200" height="40" style="fill:white;stroke:black;stroke-width:1" /><text x="1130" y="2930" font-size="10" style="fill:blue">coordenadas</text><path d="M1100 2940 C1120 2940 1100 2940 1120 2940" style="fill:transparent;stroke:black" /><text x="1130" y="2940" font-size="8" style="fill:black">lat: 42.9526827</text><text x="1130" y="2950" font-size="8" style="fill:black">long: -6.3755552</text><text x="1130" y="2960" font-size="8" style="fill:black">alt: 1.054.7566915</text><rect x="900" y="3020" width="200" height="40" style="fill:white;stroke:black;stroke-width:1" /><text x="910" y="3030" font-size="10" style="fill:blue">fotografia</text><path d="M880 2840 C900 2840 880 3040 900 3040" style="fill:transparent;stroke:black" /><text x="910" y="3040" font-size="8" style="fill:black">url: marijo.jpg</text><rect x="680" y="3120" width="200" height="40" style="fill:white;stroke:black;stroke-width:1" /><text x="690" y="3130" font-size="10" style="fill:blue">amigo</text><path d="M660 2640 C680 2640 660 3140 680 3140" style="fill:transparent;stroke:black" /><text x="690" y="3140" font-size="8" style="fill:black">nombre: Jose Maria</text><text x="690" y="3150" font-size="8" style="fill:black">apellidos: Garcia Marrero</text><text x="690" y="3160" font-size="8" style="fill:black">comentarios: Minero</text><rect x="900" y="3120" width="200" height="40" style="fill:white;stroke:black;stroke-width:1" /><text x="910" y="3130" font-size="10" style="fill:blue">nacimiento</text><path d="M880 3140 C900 3140 880 3140 900 3140" style="fill:transparent;stroke:black" /><text x="910" y="3140" font-size="8" style="fill:black">lugar: Caboalles de Abajo</text><text x="910" y="3150" font-size="8" style="fill:black">fecha: 1920-02-14</text><rect x="1120" y="3120" width="200" height="40" style="fill:white;stroke:black;stroke-width:1" /><text x="1130" y="3130" font-size="10" style="fill:blue">coordenadas</text><path d="M1100 3140 C1120 3140 1100 3140 1120 3140" style="fill:transparent;stroke:black" /><text x="1130" y="3140" font-size="8" style="fill:black">lat: 42.9526827</text><text x="1130" y="3150" font-size="8" style="fill:black">long: -6.3755552</text><text x="1130" y="3160" font-size="8" style="fill:black">alt: 1.054.7566915</text><rect x="900" y="3220" width="200" height="40" style="fill:white;stroke:black;stroke-width:1" /><text x="910" y="3230" font-size="10" style="fill:blue">residencia</text><path d="M880 3140 C900 3140 880 3240 900 3240" style="fill:transparent;stroke:black" /><text x="910" y="3240" font-size="8" style="fill:black">lugar: Caboalles de Abajo</text><rect x="1120" y="3220" width="200" height="40" style="fill:white;stroke:black;stroke-width:1" /><text x="1130" y="3230" font-size="10" style="fill:blue">coordenadas</text><path d="M1100 3240 C1120 3240 1100 3240 1120 3240" style="fill:transparent;stroke:black" /><text x="1130" y="3240" font-size="8" style="fill:black">lat: 42.9526827</text><text x="1130" y="3250" font-size="8" style="fill:black">long: -6.3755552</text><text x="1130" y="3260" font-size="8" style="fill:black">alt: 1.054.7566915</text><rect x="900" y="3320" width="200" height="40" style="fill:white;stroke:black;stroke-width:1" /><text x="910" y="3330" font-size="10" style="fill:blue">fotografia</text><path d="M880 3140 C900 3140 880 3340 900 3340" style="fill:transparent;stroke:black" /><text x="910" y="3340" font-size="8" style="fill:black">url: josemari.jpg</text><rect x="680" y="3420" width="200" height="40" style="fill:white;stroke:black;stroke-width:1" /><text x="690" y="3430" font-size="10" style="fill:blue">amigo</text><path d="M660 2640 C680 2640 660 3440 680 3440" style="fill:transparent;stroke:black" /><text x="690" y="3440" font-size="8" style="fill:black">nombre: Munia</text><text x="690" y="3450" font-size="8" style="fill:black">apellidos: Valle Dominguez</text><text x="690" y="3460" font-size="8" style="fill:black">comentarios: Madre de tres hijos</text><rect x="900" y="3420" width="200" height="40" style="fill:white;stroke:black;stroke-width:1" /><text x="910" y="3430" font-size="10" style="fill:blue">nacimiento</text><path d="M880 3440 C900 3440 880 3440 900 3440" style="fill:transparent;stroke:black" /><text x="910" y="3440" font-size="8" style="fill:black">lugar: Llamas de Laciana</text><text x="910" y="3450" font-size="8" style="fill:black">fecha: 1920-10-25</text><rect x="1120" y="3420" width="200" height="40" style="fill:white;stroke:black;stroke-width:1" /><text x="1130" y="3430" font-size="10" style="fill:blue">coordenadas</text><path d="M1100 3440 C1120 3440 1100 3440 1120 3440" style="fill:transparent;stroke:black" /><text x="1130" y="3440" font-size="8" style="fill:black">lat: 42.9285463</text><text x="1130" y="3450" font-size="8" style="fill:black">long: -6.3223696</text><text x="1130" y="3460" font-size="8" style="fill:black">alt: 994.4560698</text><rect x="900" y="3520" width="200" height="40" style="fill:white;stroke:black;stroke-width:1" /><text x="910" y="3530" font-size="10" style="fill:blue">residencia</text><path d="M880 3440 C900 3440 880 3540 900 3540" style="fill:transparent;stroke:black" /><text x="910" y="3540" font-size="8" style="fill:black">lugar: Caboalles de Abajo</text><rect x="1120" y="3520" width="200" height="40" style="fill:white;stroke:black;stroke-width:1" /><text x="1130" y="3530" font-size="10" style="fill:blue">coordenadas</text><path d="M1100 3540 C1120 3540 1100 3540 1120 3540" style="fill:transparent;stroke:black" /><text x="1130" y="3540" font-size="8" style="fill:black">lat: 42.9526827</text><text x="1130" y="3550" font-size="8" style="fill:black">long: -6.3755552</text><text x="1130" y="3560" font-size="8" style="fill:black">alt: 1.054.7566915</text><rect x="900" y="3620" width="200" height="40" style="fill:white;stroke:black;stroke-width:1" /><text x="910" y="3630" font-size="10" style="fill:blue">fotografia</text><path d="M880 3440 C900 3440 880 3640 900 3640" style="fill:transparent;stroke:black" /><text x="910" y="3640" font-size="8" style="fill:black">url: munia.jpg</text><rect x="680" y="3720" width="200" height="40" style="fill:white;stroke:black;stroke-width:1" /><text x="690" y="3730" font-size="10" style="fill:blue">fotografia</text><path d="M660 2640 C680 2640 660 3740 680 3740" style="fill:transparent;stroke:black" /><text x="690" y="3740" font-size="8" style="fill:black">url: ana.jpg</text><rect x="460" y="3820" width="200" height="40" style="fill:white;stroke:black;stroke-width:1" /><text x="470" y="3830" font-size="10" style="fill:blue">fotografia</text><path d="M440 40 C460 40 440 3840 460 3840" style="fill:transparent;stroke:black" /><text x="470" y="3840" font-size="8" style="fill:black">url: miguel.jpg</text></svg>